<svg id="FLAT_ART" data-name="FLAT ART" xmlns="http://www.w3.org/2000/svg" viewBox="0 0 258 164"><title>allInclusiveChequingAccount-Compare</title><rect x="66.75" y="116.34" width="20.63" height="3.5" style="fill:#fff"/><rect x="97.6" y="116.34" width="21.03" height="3.5" style="fill:#fff"/><path d="M221.85,57.55a2.71,2.71,0,0,0-1.11-1.77A10.09,10.09,0,0,1,217,44.32a2.82,2.82,0,0,0,.15-.92,2.73,2.73,0,0,0-.83-1.92,3,3,0,0,0-1.94-.77h-.24a10.06,10.06,0,0,1-9.55-7,2.87,2.87,0,0,0-.42-.86,2.74,2.74,0,0,0-3.83-.61,10,10,0,0,1-11.94,0,2.63,2.63,0,0,0-.83-.43,2.74,2.74,0,0,0-3.43,1.8,10,10,0,0,1-9.59,7.05h-.14a2.93,2.93,0,0,0-.9.14A2.74,2.74,0,0,0,172,42.12a2.71,2.71,0,0,0-.13,2.09,7.21,7.21,0,0,1,.28,1H56.28a6,6,0,0,0-6,6v81.47a6,6,0,0,0,6,6H191.76a6,6,0,0,0,6-6V82.23a10.11,10.11,0,0,1,2.59,1.38,2.63,2.63,0,0,0,.83.43,2.73,2.73,0,0,0,3.43-1.8,10.08,10.08,0,0,1,9.83-7,2.75,2.75,0,0,0,.8-.14A2.75,2.75,0,0,0,217,71.65a9.82,9.82,0,0,1-.52-3.24h0a10.05,10.05,0,0,1,4.27-8.17,2.36,2.36,0,0,0,.63-.63A2.68,2.68,0,0,0,221.85,57.55ZM87.38,119.84H66.75v-3.5H87.38Zm31.25,0h-21v-3.5h21Zm62.92,0h-21v-3.5h21Z" style="fill:#fff"/><rect x="160.52" y="116.34" width="21.03" height="3.5" style="fill:#fff"/><path d="M66.75,61.74V91.59h33.38V61.74Zm21.91,23.4H80.89v-14h3.9V82.66h3.76c2.59,0,3.68-1.8,3.68-6.43s-1.24-6-3.87-6H79.8V85.14H75.93V70.23H70.25V67.74H89.57c4.66,0,6.87,2.41,6.87,8.46C96.44,84.16,93.13,85.14,88.66,85.14Z" style="fill:#00b624"/><path d="M196,72v60.72a4.28,4.28,0,0,1-4.27,4.28H56.28A4.28,4.28,0,0,1,52,132.72V51.25A4.29,4.29,0,0,1,56.28,47H173" style="fill:none;stroke:#1a5336;stroke-linecap:square;stroke-miterlimit:10;stroke-width:3.5px"/><line x1="66.75" y1="118.09" x2="87.38" y2="118.09" style="fill:none;stroke:#1a5336;stroke-miterlimit:10;stroke-width:3.5px"/><line x1="97.6" y1="118.09" x2="118.63" y2="118.09" style="fill:none;stroke:#1a5336;stroke-miterlimit:10;stroke-width:3.5px"/><line x1="129.06" y1="118.09" x2="150.09" y2="118.09" style="fill:none;stroke:#1a5336;stroke-miterlimit:10;stroke-width:3.5px"/><line x1="160.52" y1="118.09" x2="181.55" y2="118.09" style="fill:none;stroke:#1a5336;stroke-miterlimit:10;stroke-width:3.5px"/><path d="M220.74,55.78A10.09,10.09,0,0,1,217,44.32a2.82,2.82,0,0,0,.15-.92,2.73,2.73,0,0,0-.83-1.92,3,3,0,0,0-1.94-.77h-.24a10.06,10.06,0,0,1-9.55-7,2.87,2.87,0,0,0-.42-.86,2.74,2.74,0,0,0-3.83-.61,10,10,0,0,1-11.94,0,2.73,2.73,0,0,0-4.26,1.37,10,10,0,0,1-9.59,7.05h-.14a2.93,2.93,0,0,0-.9.14A2.74,2.74,0,0,0,172,42.12a2.71,2.71,0,0,0-.13,2.09,10.09,10.09,0,0,1-3.7,11.46,2.63,2.63,0,0,0-.65.64,2.74,2.74,0,0,0,.66,3.82,10.08,10.08,0,0,1,3.69,11.45,2.64,2.64,0,0,0-.14.92,2.72,2.72,0,0,0,.82,1.92,2.92,2.92,0,0,0,1.94.77h.12a10.1,10.1,0,0,1,9.59,7,2.51,2.51,0,0,0,.4.78,2.74,2.74,0,0,0,3.83.59,10,10,0,0,1,12,0,2.63,2.63,0,0,0,.83.43,2.73,2.73,0,0,0,3.43-1.8,10.08,10.08,0,0,1,9.83-7h0a2.75,2.75,0,0,0,.8-.14A2.75,2.75,0,0,0,217,71.65a9.82,9.82,0,0,1-.52-3.24h0a10.05,10.05,0,0,1,4.27-8.17,2.36,2.36,0,0,0,.63-.63,2.68,2.68,0,0,0,.47-2.05A2.71,2.71,0,0,0,220.74,55.78Zm-20,4.51,1.55,9-8.09-4.25-8.1,4.25,1.55-9-6.55-6.38,9.05-1.31,4-8.2,4,8.2,9,1.31Z" style="fill:#1a5336"/></svg>