<svg id="FLAT_ART" data-name="FLAT ART" xmlns="http://www.w3.org/2000/svg" viewBox="0 0 258 164"><title>everydayChequingAccount-Compare</title><path d="M200,51.87V131.6a5.87,5.87,0,0,1-5.87,5.86H61.59a5.88,5.88,0,0,1-5.87-5.86V51.87A5.89,5.89,0,0,1,61.59,46H194.13A5.88,5.88,0,0,1,200,51.87Z" style="fill:#fff"/><path d="M69.84,61.55v30h33.58v-30Zm22,23.53H84.06V71H88v11.6h3.78c2.61,0,3.7-1.81,3.7-6.46s-1.24-6-3.89-6H83v15H79.07v-15H73.36V67.58H92.79c4.69,0,6.91,2.43,6.91,8.51C99.7,84.1,96.38,85.08,91.88,85.08Z" style="fill:#00b624"/><path d="M198.14,76.58v54a4.9,4.9,0,0,1-4.89,4.9H61.65a4.91,4.91,0,0,1-4.9-4.9V53.34a4.91,4.91,0,0,1,4.9-4.9H168a23,23,0,0,1,1.23-3.5H61.65a8.41,8.41,0,0,0-8.4,8.4v77.27a8.41,8.41,0,0,0,8.4,8.4h131.6a8.4,8.4,0,0,0,8.39-8.4V75.06A23.27,23.27,0,0,1,198.14,76.58Z" style="fill:#1a5336"/><circle cx="191.06" cy="54.44" r="15.62" style="fill:#fff"/><circle cx="191.06" cy="54.44" r="15.62" style="fill:none;stroke:#1a5336;stroke-linecap:square;stroke-miterlimit:10;stroke-width:3.5px"/><line x1="191.08" y1="28.54" x2="191.08" y2="23.51" style="fill:none;stroke:#1a5336;stroke-linecap:square;stroke-miterlimit:10;stroke-width:3.5px"/><line x1="191.08" y1="85.07" x2="191.08" y2="80.04" style="fill:none;stroke:#1a5336;stroke-linecap:square;stroke-miterlimit:10;stroke-width:3.5px"/><line x1="222" y1="56.03" x2="216.97" y2="56.03" style="fill:none;stroke:#1a5336;stroke-linecap:square;stroke-miterlimit:10;stroke-width:3.5px"/><line x1="165.15" y1="56.03" x2="160.12" y2="56.03" style="fill:none;stroke:#1a5336;stroke-linecap:square;stroke-miterlimit:10;stroke-width:3.5px"/><line x1="213.21" y1="75.96" x2="209.61" y2="72.45" style="fill:none;stroke:#1a5336;stroke-linecap:square;stroke-miterlimit:10;stroke-width:3.5px"/><line x1="172.51" y1="36.26" x2="168.91" y2="32.75" style="fill:none;stroke:#1a5336;stroke-linecap:square;stroke-miterlimit:10;stroke-width:3.5px"/><line x1="213.37" y1="32.92" x2="209.75" y2="36.4" style="fill:none;stroke:#1a5336;stroke-linecap:square;stroke-miterlimit:10;stroke-width:3.5px"/><line x1="172.37" y1="72.31" x2="168.75" y2="75.79" style="fill:none;stroke:#1a5336;stroke-linecap:square;stroke-miterlimit:10;stroke-width:3.5px"/><line x1="70.19" y1="118.09" x2="90.82" y2="118.09" style="fill:none;stroke:#1a5336;stroke-miterlimit:10;stroke-width:3.5px"/><line x1="101.04" y1="118.09" x2="122.08" y2="118.09" style="fill:none;stroke:#1a5336;stroke-miterlimit:10;stroke-width:3.5px"/><line x1="132.5" y1="118.09" x2="153.54" y2="118.09" style="fill:none;stroke:#1a5336;stroke-miterlimit:10;stroke-width:3.5px"/><line x1="163.96" y1="118.09" x2="185" y2="118.09" style="fill:none;stroke:#1a5336;stroke-miterlimit:10;stroke-width:3.5px"/></svg>