<svg id="FLAT_ART" data-name="FLAT ART" xmlns="http://www.w3.org/2000/svg" viewBox="0 0 258 164"><title>minimumChequingAccount</title><path d="M203,46.28v81.94a6,6,0,0,1-6,6H60.7a6,6,0,0,1-6-6V46.28a6,6,0,0,1,6-6H196.92A6,6,0,0,1,203,46.28Z" style="fill:#fff"/><path d="M71.24,56.85v30H104.8v-30Zm22,23.51H85.46V66.28h3.92V77.87h3.78c2.6,0,3.7-1.81,3.7-6.46s-1.25-6-3.89-6H84.36v15H80.47v-15h-5.7v-2.5H94.18c4.68,0,6.9,2.42,6.9,8.5C101.08,79.38,97.76,80.36,93.27,80.36Z" style="fill:#00b624"/><rect x="56.42" y="42" width="144.78" height="90.49" rx="4.28" style="fill:none;stroke:#1a5336;stroke-linecap:square;stroke-miterlimit:10;stroke-width:3.5px"/><line x1="71.24" y1="113.49" x2="91.97" y2="113.49" style="fill:none;stroke:#1a5336;stroke-miterlimit:10;stroke-width:3.5px"/><line x1="102.25" y1="113.49" x2="123.39" y2="113.49" style="fill:none;stroke:#1a5336;stroke-miterlimit:10;stroke-width:3.5px"/><line x1="133.87" y1="113.49" x2="155.02" y2="113.49" style="fill:none;stroke:#1a5336;stroke-miterlimit:10;stroke-width:3.5px"/><line x1="165.5" y1="113.49" x2="186.64" y2="113.49" style="fill:none;stroke:#1a5336;stroke-miterlimit:10;stroke-width:3.5px"/></svg>