<svg id="FLAT_ART" data-name="FLAT ART" xmlns="http://www.w3.org/2000/svg" viewBox="0 0 258 164"><title>studentAccount-Compare</title><path d="M211.54,38.11,193.8,34a1.88,1.88,0,0,0-.71,0l-35,6.64-.14,0-.11,0-.23.1,0,0a.78.78,0,0,0-.24.16l-.06,0-.14.14-.06.09-.1.14-.05.1-.06.16,0,.06v.05l0,.17v.68h-.05v3H55.28a6,6,0,0,0-6,6v81a6,6,0,0,0,6,6H190a6,6,0,0,0,6-6V74.13l15.53-2.89Z" style="fill:#fff"/><path d="M65.67,62.14v29.7h33.2V62.14Zm21.8,23.27H79.73V71.48h3.89V83h3.73C89.93,83,91,81.16,91,76.56s-1.23-6-3.85-6H78.65V85.41H74.8V70.58H69.16V68.11H88.37c4.63,0,6.83,2.4,6.83,8.41C95.2,84.44,91.91,85.41,87.47,85.41Z" style="fill:#00b624"/><path d="M194.26,74v58.72A4.28,4.28,0,0,1,190,137H55.28A4.28,4.28,0,0,1,51,132.72v-81a4.29,4.29,0,0,1,4.28-4.28H158" style="fill:none;stroke:#1a5336;stroke-linecap:square;stroke-miterlimit:10;stroke-width:3.5px"/><line x1="65.67" y1="118.19" x2="86.19" y2="118.19" style="fill:none;stroke:#1a5336;stroke-miterlimit:10;stroke-width:3.5px"/><line x1="96.35" y1="118.19" x2="117.28" y2="118.19" style="fill:none;stroke:#1a5336;stroke-miterlimit:10;stroke-width:3.5px"/><line x1="127.65" y1="118.19" x2="148.57" y2="118.19" style="fill:none;stroke:#1a5336;stroke-miterlimit:10;stroke-width:3.5px"/><line x1="158.94" y1="118.19" x2="179.86" y2="118.19" style="fill:none;stroke:#1a5336;stroke-miterlimit:10;stroke-width:3.5px"/><polygon points="170.13 84.79 165.01 87.72 165.01 65.57 176.24 68.13 176.24 91.64 170.13 84.79" style="fill:#fff"/><polygon points="167.39 83.62 170.62 81.77 173.86 85.39 173.86 70.03 167.39 68.56 167.39 83.62" style="fill:#1a5336"/><path d="M215.79,49.92,180.7,56.44,160.23,52V45l.25,0,19.88,4.55,35.42-6.75,0-3.77L193.8,34a1.88,1.88,0,0,0-.71,0l-35,6.64-.14,0-.11,0-.23.1,0,0-.24.16-.06,0-.14.14-.06.09-.1.14-.05.1-.06.16,0,.06v.05l0,.17v.68h-.05V54.77L180.64,60l35.15-6.53ZM189.92,36.05l15.24,3.81-10,1.78-16.43-3.45Z" style="fill:#1a5336"/><polygon points="215.79 66.89 180.7 73.42 160.23 68.92 160.23 62.55 180.65 67.02 215.79 60.49 215.79 56.93 180.7 63.45 156.73 58.19 156.73 71.74 180.65 76.98 215.79 70.45 215.79 66.89" style="fill:#1a5336"/></svg>