<svg id="FLAT_ART" data-name="FLAT ART" xmlns="http://www.w3.org/2000/svg" viewBox="0 0 258 164"><title>unlimitedChequingAccount-Compare</title><path d="M215.67,47.8A17.74,17.74,0,0,1,198,65.52h-.15V128.3a6,6,0,0,1-6,6H54.42a6,6,0,0,1-6-6V45.65a6,6,0,0,1,6-6h89.37a17.81,17.81,0,0,1,3.2-4.36,17.71,17.71,0,0,1,25,0l6.7,6.69,6.68-6.69A17.73,17.73,0,0,1,215.67,47.8Z" style="fill:#fff"/><path d="M65.09,56.34V86.58H98.91V56.34ZM87.29,80H79.42V65.85h4V77.52h3.81c2.62,0,3.73-1.82,3.73-6.5S89.65,64.94,87,64.94H78.31V80H74.39V64.94H68.64V62.42H88.21c4.72,0,7,2.44,7,8.56C95.17,79.05,91.82,80,87.29,80Z" style="fill:#00b624"/><path d="M196.06,63.51V128.3a4.3,4.3,0,0,1-4.28,4.28H54.43a4.3,4.3,0,0,1-4.28-4.28V45.65a4.3,4.3,0,0,1,4.28-4.28h90" style="fill:none;stroke:#1a5336;stroke-linecap:square;stroke-miterlimit:10;stroke-width:3.5px"/><line x1="65.09" y1="113.42" x2="85.99" y2="113.42" style="fill:none;stroke:#1a5336;stroke-linecap:square;stroke-miterlimit:10;stroke-width:3.5px"/><line x1="96.34" y1="113.42" x2="117.65" y2="113.42" style="fill:none;stroke:#1a5336;stroke-linecap:square;stroke-miterlimit:10;stroke-width:3.5px"/><line x1="128.21" y1="113.42" x2="149.52" y2="113.42" style="fill:none;stroke:#1a5336;stroke-linecap:square;stroke-miterlimit:10;stroke-width:3.5px"/><line x1="160.08" y1="113.42" x2="181.39" y2="113.42" style="fill:none;stroke:#1a5336;stroke-linecap:square;stroke-miterlimit:10;stroke-width:3.5px"/><path d="M159.52,65.52a17.72,17.72,0,1,1,12.53-30.25L178.73,42l6.69-6.68a17.73,17.73,0,1,1,0,25l-6.69-6.68-6.68,6.69A17.64,17.64,0,0,1,159.52,65.52Zm0-30.75A13,13,0,1,0,168.73,57l9.21-9.21-9.21-9.21A12.94,12.94,0,0,0,159.52,34.77Zm20,13L188.74,57a13,13,0,1,0,0-18.42Z" style="fill:#1a5336"/></svg>